<svg width="800" height="800" viewBox="0 0 800 800" fill="none" xmlns="http://www.w3.org/2000/svg">
<path fill-rule="evenodd" clip-rule="evenodd" d="M400.004 175C307.529 175 226.567 230.374 170.934 281.611C142.671 307.641 119.876 333.593 104.148 353.02C96.2683 362.75 90.1229 370.893 85.9123 376.657C83.8059 379.54 82.181 381.83 81.0626 383.43C80.5033 384.23 80.0703 384.857 79.7669 385.3L79.4093 385.823L79.304 385.98L70.1826 400.44L79.2699 413.97L79.304 414.02L79.4093 414.177L79.7669 414.7C80.0703 415.143 80.5033 415.77 81.0626 416.57C82.181 418.17 83.8059 420.46 85.9123 423.343C90.1229 429.107 96.2683 437.25 104.148 446.98C119.876 466.407 142.671 492.36 170.934 518.39C226.567 569.627 307.529 625 400.004 625C492.477 625 573.437 569.627 629.07 518.39C657.334 492.36 680.13 466.407 695.857 446.98C703.737 437.25 709.88 429.107 714.094 423.343C716.197 420.46 717.824 418.17 718.94 416.57C719.5 415.77 719.934 415.143 720.237 414.7L720.594 414.177L720.7 414.02L720.747 413.953L730.117 400L720.734 386.03L720.7 385.98L720.594 385.823L720.237 385.3C719.934 384.857 719.5 384.23 718.94 383.43C717.824 381.83 716.197 379.54 714.094 376.657C709.88 370.893 703.737 362.75 695.857 353.02C680.13 333.593 657.334 307.641 629.07 281.611C573.437 230.374 492.477 175 400.004 175ZM143.008 415.52C138.228 409.617 134.16 404.37 130.859 400C134.16 395.63 138.228 390.383 143.008 384.48C157.642 366.407 178.78 342.36 204.807 318.389C257.752 269.626 326.79 225 400.004 225C473.214 225 542.254 269.626 595.197 318.389C621.224 342.36 642.364 366.407 656.997 384.48C661.777 390.383 665.844 395.63 669.147 400C665.844 404.37 661.777 409.617 656.997 415.52C642.364 433.593 621.224 457.64 595.197 481.61C542.254 530.373 473.214 575 400.004 575C326.79 575 257.752 530.373 204.807 481.61C178.78 457.64 157.642 433.593 143.008 415.52ZM475 400C475 441.42 441.424 475 400 475C358.58 475 325.002 441.42 325.002 400C325.002 358.58 358.58 325 400 325C441.424 325 475 358.58 475 400ZM525 400C525 469.037 469.037 525 400 525C330.966 525 275.002 469.037 275.002 400C275.002 330.964 330.966 275 400 275C469.037 275 525 330.964 525 400Z" fill="#E57431"/>
</svg>
