<svg width="800" height="800" viewBox="0 0 800 800" fill="none" xmlns="http://www.w3.org/2000/svg">
<path fill-rule="evenodd" clip-rule="evenodd" d="M519.26 454.447C541.32 406.104 532.46 347.11 492.677 307.326C452.893 267.543 393.9 258.681 345.557 280.74L385.123 320.306C410.5 315.593 437.69 323.051 457.32 342.68C476.95 362.31 484.41 389.504 479.697 414.88L519.26 454.447Z" fill="#E57431"/>
<path fill-rule="evenodd" clip-rule="evenodd" d="M195.447 260.26C186.815 267.351 178.631 274.521 170.933 281.611C142.67 307.641 119.875 333.593 104.147 353.02C96.2674 362.75 90.1221 370.893 85.9114 376.657C83.8051 379.54 82.1801 381.83 81.0617 383.43C80.5024 384.23 80.0694 384.857 79.7661 385.3L79.4084 385.823L79.3031 385.98L79.2691 386.03L69.8857 400L79.2474 413.937L79.2691 413.97L79.3031 414.02L79.4084 414.177L79.7661 414.7C80.0694 415.143 80.5024 415.77 81.0617 416.57C82.1801 418.17 83.8051 420.46 85.9114 423.343C90.1221 429.107 96.2674 437.25 104.147 446.98C119.875 466.407 142.67 492.36 170.933 518.39C226.566 569.627 307.528 625 400 625C445.647 625 488.49 611.507 526.867 591.68L489.44 554.257C460.964 567.077 430.854 575 400 575C326.789 575 257.752 530.373 204.806 481.61C178.779 457.64 157.641 433.593 143.007 415.52C138.227 409.617 134.159 404.37 130.858 400C134.159 395.63 138.227 390.383 143.007 384.48C157.641 366.407 178.779 342.36 204.806 318.389C213.149 310.705 221.893 303.123 230.989 295.803L195.447 260.26ZM569.017 504.193C578.114 496.877 586.854 489.293 595.197 481.61C621.224 457.64 642.36 433.593 656.997 415.52C661.774 409.617 665.844 404.37 669.144 400C665.844 395.63 661.774 390.383 656.997 384.48C642.36 366.407 621.224 342.36 595.197 318.389C542.25 269.626 473.214 225 400 225C369.15 225 339.04 232.924 310.565 245.743L273.14 208.318C311.515 188.492 354.357 175 400 175C492.474 175 573.437 230.374 629.07 281.611C657.334 307.641 680.127 333.593 695.857 353.02C703.734 362.75 709.88 370.893 714.09 376.657C716.197 379.54 717.824 381.83 718.94 383.43C719.5 384.23 719.934 384.857 720.237 385.3L720.594 385.823L720.7 385.98L720.734 386.03L730.117 400L720.747 413.953L720.7 414.02L720.594 414.177L720.237 414.7C719.934 415.143 719.5 415.77 718.94 416.57C717.824 418.17 716.197 420.46 714.09 423.343C709.88 429.107 703.734 437.25 695.857 446.98C680.127 466.407 657.334 492.36 629.07 518.39C621.374 525.48 613.19 532.647 604.56 539.737L569.017 504.193Z" fill="#E57431"/>
<path fill-rule="evenodd" clip-rule="evenodd" d="M625 660.357L125 160.355L160.355 125L660.357 625L625 660.357Z" fill="#E57431"/>
</svg>
